<svg width="49" height="40" viewBox="0 0 49 40" fill="none" xmlns="http://www.w3.org/2000/svg">
<path d="M15.3302 0.0691833L22.3702 6.59718C20.8342 8.04785 19.4262 9.49851 18.1462 10.9492C16.9515 12.3998 16.0128 13.8505 15.3302 15.3012C14.6475 16.7518 14.3062 18.1598 14.3062 19.5252C14.3062 20.6345 14.6048 21.5732 15.2022 22.3412C15.7995 23.1092 16.4822 23.8345 17.2502 24.5172C18.0182 25.1998 18.7008 26.0105 19.2982 26.9492C19.8955 27.8878 20.1942 29.0825 20.1942 30.5332C20.1942 33.0078 19.2982 35.1412 17.5062 36.9332C15.7995 38.7252 13.5382 39.6212 10.7222 39.6212C7.99148 39.6212 5.51682 38.5118 3.29815 36.2932C1.16482 34.0745 0.0981493 31.2585 0.0981493 27.8452C0.0981493 25.1145 0.652816 22.2985 1.76215 19.3972C2.95682 16.4105 4.66348 13.2958 6.88215 10.0532C9.10082 6.81051 11.9168 3.48251 15.3302 0.0691833ZM41.5702 0.0691833L48.6102 6.59718C47.0742 8.04785 45.6662 9.49851 44.3862 10.9492C43.1915 12.3998 42.2528 13.8505 41.5702 15.3012C40.8875 16.7518 40.5462 18.1598 40.5462 19.5252C40.5462 20.6345 40.8448 21.5732 41.4422 22.3412C42.0395 23.1092 42.7222 23.8345 43.4902 24.5172C44.2582 25.1998 44.9408 26.0105 45.5382 26.9492C46.1355 27.8878 46.4342 29.0825 46.4342 30.5332C46.4342 33.0078 45.5382 35.1412 43.7462 36.9332C42.0395 38.7252 39.7781 39.6212 36.9622 39.6212C34.2315 39.6212 31.7568 38.5118 29.5382 36.2932C27.4048 34.0745 26.3382 31.2585 26.3382 27.8452C26.3382 25.1145 26.8928 22.2985 28.0022 19.3972C29.1968 16.4105 30.9035 13.2958 33.1222 10.0532C35.3408 6.81051 38.1568 3.48251 41.5702 0.0691833Z" fill="#0334FC"/>
</svg>
